<svg width="40" height="40" viewBox="0 0 40 40" fill="none" xmlns="http://www.w3.org/2000/svg">
<path fill-rule="evenodd" clip-rule="evenodd" d="M17.48 6.31333C19.1207 4.67233 21.3461 3.75027 23.6667 3.75H28.1667C28.4982 3.75 28.8161 3.8817 29.0506 4.11612C29.285 4.35054 29.4167 4.66848 29.4167 5V11C29.4167 11.3315 29.285 11.6495 29.0506 11.8839C28.8161 12.1183 28.4982 12.25 28.1667 12.25H23.6667C23.6338 12.25 23.6013 12.2565 23.571 12.269C23.5407 12.2816 23.5131 12.3 23.4899 12.3232C23.4667 12.3464 23.4483 12.374 23.4357 12.4043C23.4231 12.4347 23.4167 12.4672 23.4167 12.5V15.75H28.1667C28.3567 15.7499 28.5443 15.7931 28.7151 15.8764C28.8859 15.9597 29.0355 16.0808 29.1525 16.2305C29.2694 16.3803 29.3507 16.5547 29.3902 16.7406C29.4296 16.9265 29.4261 17.119 29.38 17.3033L27.88 23.3033C27.8123 23.5739 27.6562 23.814 27.4363 23.9855C27.2164 24.1571 26.9455 24.2502 26.6667 24.25H23.4167V35C23.4167 35.3315 23.285 35.6495 23.0506 35.8839C22.8161 36.1183 22.4982 36.25 22.1667 36.25H16.1667C15.8352 36.25 15.5172 36.1183 15.2828 35.8839C15.0484 35.6495 14.9167 35.3315 14.9167 35V24.25H11.6667C11.3352 24.25 11.0172 24.1183 10.7828 23.8839C10.5484 23.6495 10.4167 23.3315 10.4167 23V17C10.4167 16.8358 10.449 16.6733 10.5118 16.5216C10.5746 16.37 10.6667 16.2322 10.7828 16.1161C10.8989 16 11.0367 15.908 11.1883 15.8452C11.34 15.7823 11.5025 15.75 11.6667 15.75H14.9167V12.5C14.9169 10.1795 15.839 7.95407 17.48 6.31333ZM23.6667 6.25C22.0091 6.25 20.4194 6.90848 19.2473 8.08058C18.0752 9.25269 17.4167 10.8424 17.4167 12.5V17C17.4167 17.3315 17.285 17.6495 17.0506 17.8839C16.8161 18.1183 16.4982 18.25 16.1667 18.25H12.9167V21.75H16.1667C16.4982 21.75 16.8161 21.8817 17.0506 22.1161C17.285 22.3505 17.4167 22.6685 17.4167 23V33.75H20.9167V23C20.9167 22.6685 21.0484 22.3505 21.2828 22.1161C21.5172 21.8817 21.8352 21.75 22.1667 21.75H25.69L26.565 18.25H22.1667C21.8352 18.25 21.5172 18.1183 21.2828 17.8839C21.0484 17.6495 20.9167 17.3315 20.9167 17V12.5C20.9167 11.7707 21.2064 11.0712 21.7221 10.5555C22.2379 10.0397 22.9373 9.75 23.6667 9.75H26.9167V6.25H23.6667Z" fill="#FFE46C"/>
</svg>
