<svg width="41" height="40" viewBox="0 0 41 40" fill="none" xmlns="http://www.w3.org/2000/svg">
<path d="M13.3333 3.33337H27.3333C32.6667 3.33337 37 7.66671 37 13V27C37 29.5638 35.9815 32.0226 34.1687 33.8354C32.3558 35.6483 29.8971 36.6667 27.3333 36.6667H13.3333C7.99999 36.6667 3.66666 32.3334 3.66666 27V13C3.66666 10.4363 4.68511 7.97753 6.49796 6.16468C8.31081 4.35182 10.7696 3.33337 13.3333 3.33337ZM13 6.66671C11.4087 6.66671 9.88257 7.29885 8.75735 8.42407C7.63213 9.54928 6.99999 11.0754 6.99999 12.6667V27.3334C6.99999 30.65 9.68332 33.3334 13 33.3334H27.6667C29.258 33.3334 30.7841 32.7012 31.9093 31.576C33.0345 30.4508 33.6667 28.9247 33.6667 27.3334V12.6667C33.6667 9.35004 30.9833 6.66671 27.6667 6.66671H13ZM29.0833 9.16671C29.6359 9.16671 30.1658 9.3862 30.5565 9.7769C30.9472 10.1676 31.1667 10.6975 31.1667 11.25C31.1667 11.8026 30.9472 12.3325 30.5565 12.7232C30.1658 13.1139 29.6359 13.3334 29.0833 13.3334C28.5308 13.3334 28.0009 13.1139 27.6102 12.7232C27.2195 12.3325 27 11.8026 27 11.25C27 10.6975 27.2195 10.1676 27.6102 9.7769C28.0009 9.3862 28.5308 9.16671 29.0833 9.16671ZM20.3333 11.6667C22.5435 11.6667 24.6631 12.5447 26.2259 14.1075C27.7887 15.6703 28.6667 17.7899 28.6667 20C28.6667 22.2102 27.7887 24.3298 26.2259 25.8926C24.6631 27.4554 22.5435 28.3334 20.3333 28.3334C18.1232 28.3334 16.0036 27.4554 14.4408 25.8926C12.878 24.3298 12 22.2102 12 20C12 17.7899 12.878 15.6703 14.4408 14.1075C16.0036 12.5447 18.1232 11.6667 20.3333 11.6667ZM20.3333 15C19.0072 15 17.7355 15.5268 16.7978 16.4645C15.8601 17.4022 15.3333 18.674 15.3333 20C15.3333 21.3261 15.8601 22.5979 16.7978 23.5356C17.7355 24.4733 19.0072 25 20.3333 25C21.6594 25 22.9312 24.4733 23.8689 23.5356C24.8065 22.5979 25.3333 21.3261 25.3333 20C25.3333 18.674 24.8065 17.4022 23.8689 16.4645C22.9312 15.5268 21.6594 15 20.3333 15Z" fill="#FFE46C"/>
</svg>
