<svg width="37" height="38" viewBox="0 0 37 38" fill="none" xmlns="http://www.w3.org/2000/svg">
<path d="M18.6667 17.3333L12 34M15.29 26.62C17.1033 27.4241 19.1439 27.555 21.0451 26.9892C22.9462 26.4234 24.5832 25.198 25.6618 23.5333C26.7403 21.8687 27.1897 19.8738 26.9292 17.9075C26.6687 15.9411 25.7153 14.1321 24.2404 12.8058C22.7655 11.4794 20.8659 10.7226 18.883 10.6715C16.9001 10.6203 14.964 11.2781 13.4227 12.5267C11.8814 13.7752 10.836 15.5326 10.4744 17.4829C10.1128 19.4332 10.4587 21.4486 11.45 23.1667" stroke="#FFE46C" stroke-width="3" stroke-linecap="round" stroke-linejoin="round"/>
<path d="M18.6667 35.6667C27.8714 35.6667 35.3333 28.2048 35.3333 19C35.3333 9.79529 27.8714 2.33337 18.6667 2.33337C9.46192 2.33337 2 9.79529 2 19C2 28.2048 9.46192 35.6667 18.6667 35.6667Z" stroke="#FFE46C" stroke-width="3" stroke-linecap="round" stroke-linejoin="round"/>
</svg>
