<svg width="40" height="34" viewBox="0 0 40 34" fill="none" xmlns="http://www.w3.org/2000/svg">
<g clip-path="url(#clip0_132_131)">
<path d="M39.9989 4.513C38.8851 6.1818 37.5186 7.60438 35.8995 8.78073C35.9155 9.09622 35.9234 9.45281 35.9234 9.85049C35.9234 12.0601 35.6036 14.2723 34.964 16.4873C34.3244 18.7022 33.3473 20.8223 32.0328 22.8476C30.7184 24.8729 29.1526 26.667 27.3355 28.2302C25.5184 29.7933 23.3342 31.0397 20.7829 31.9693C18.2315 32.8989 15.4972 33.3637 12.5798 33.3637C8.02679 33.3637 3.83389 32.1256 0.00112915 29.6493C0.681399 29.7256 1.33383 29.7637 1.95844 29.7637C5.76213 29.7637 9.15944 28.5836 12.1504 26.2234C10.3769 26.1906 8.78856 25.6407 7.38546 24.5736C5.98236 23.5066 5.01678 22.1431 4.48872 20.4831C5.01067 20.5833 5.52582 20.6333 6.03417 20.6333C6.76591 20.6333 7.48592 20.5372 8.19422 20.3449C6.30157 19.9631 4.73146 19.0136 3.48388 17.4964C2.23634 15.9791 1.61257 14.228 1.61257 12.2429V12.1406C2.77429 12.7885 4.01344 13.1331 5.33003 13.1745C4.20884 12.4216 3.31991 11.4398 2.66323 10.2291C2.0065 9.01836 1.67814 7.70816 1.67814 6.29847C1.67814 4.81171 2.048 3.42726 2.78773 2.14511C4.84595 4.68927 7.33992 6.72263 10.2696 8.24521C13.1994 9.76782 16.3425 10.6134 19.6988 10.782C19.5557 10.1811 19.484 9.55399 19.4837 8.90071C19.4837 6.61971 20.2851 4.67206 21.8878 3.05778C23.4906 1.44349 25.4242 0.636353 27.6888 0.636353C30.0596 0.636353 32.0566 1.50593 33.6798 3.24508C35.5343 2.87506 37.2708 2.2058 38.8891 1.23729C38.2656 3.2138 37.0642 4.73854 35.2848 5.81152C36.9202 5.61576 38.4916 5.18292 39.9989 4.513H39.9989Z" fill="#FFE46C"/>
</g>
<defs>
<clipPath id="clip0_132_131">
<rect width="40" height="32.7273" fill="white" transform="translate(0 0.636353)"/>
</clipPath>
</defs>
</svg>
