<svg width="40" height="40" viewBox="0 0 40 40" fill="none" xmlns="http://www.w3.org/2000/svg">
<path d="M37.5667 10.7C37.3585 9.92043 36.9496 9.20907 36.3808 8.63679C35.8121 8.0645 35.1032 7.65128 34.325 7.43829C31.4667 6.66663 20 6.66663 20 6.66663C20 6.66663 8.53334 6.66663 5.67501 7.43829C4.89677 7.65128 4.18794 8.0645 3.61917 8.63679C3.05039 9.20907 2.64153 9.92043 2.43334 10.7C1.66667 13.58 1.66667 19.5833 1.66667 19.5833C1.66667 19.5833 1.66667 25.5866 2.43334 28.4666C2.64128 29.2465 3.05002 29.9582 3.61882 30.5308C4.18761 31.1034 4.89657 31.5168 5.67501 31.73C8.53501 32.5 20 32.5 20 32.5C20 32.5 31.4667 32.5 34.325 31.73C35.1034 31.5168 35.8124 31.1034 36.3812 30.5308C36.95 29.9582 37.3587 29.2465 37.5667 28.4666C38.3333 25.59 38.3333 19.5833 38.3333 19.5833C38.3333 19.5833 38.3333 13.58 37.5667 10.7ZM16.25 25.035V14.1333L25.8333 19.585L16.25 25.035Z" stroke="#FFE46C" stroke-width="2.5" stroke-miterlimit="10" stroke-linejoin="round"/>
</svg>
